# xmcd
#
# Track frame offsets:
#	150
#	18013
#	44013
#	56950
#	68644
#	82968
#	95778
#	108306
#	121344
#	134304
#	151046
#	173649
#	185105
#	198589
#	219482
#	231395
#	244988
#	257196
#	277499
#	299359
#
# Disc length: 4210 seconds
#
# Revision: 2
# Processed by: cddbd v1.5.2PL0 Copyright (c) Steve Scherf et al.
# Submitted via: audiograbber 1.83.01
#
DISCID=35107014
DTITLE=Various Artist - Latin Fever CD 2
DYEAR=2012
DGENRE=Latin
TTITLE0=Mongo Santamaria - Afro Blue
TTITLE1=Ruben Rodriguez - Dos Cositas
TTITLE2=Celia Cruz - Ven Bernabe
TTITLE3=Compay Segundo - Filiberto
TTITLE4=Rueben Gonzalez - Nosotros
TTITLE5=Ramon Valez - Guajira Moruna
TTITLE6=Cheo Marquetti - Aprieta En El Rincon
TTITLE7=El Negro Peregrino - El Jarabe Loco
TTITLE8=Ruben Gonzalez - Soy Como Soy
TTITLE9=Danae Ft. Antonio Perez Rodriques - Cosas Inciertas
TTITLE10=Sandunga - Busca Un Amor
TTITLE11=Tito Puente - Candido
TTITLE12=Miguelito Valdes - El Limpiabotas
TTITLE13=Fajardo - La Charanga
TTITLE14=Tona La Negra - Allava
TTITLE15=Alfredito Valdez Y Trio Caney - La Campina Cubana
TTITLE16=Joseito Fernandez Y Aragon - Asi Son Bonco
TTITLE17=Yumuri y sus hermanos - Bailen Otre Vez
TTITLE18=Chan Chan - Baby Salsa
TTITLE19=Compay Segundo - Me Daras Que Sabroso
EXTD=
EXTT0=
EXTT1=
EXTT2=
EXTT3=
EXTT4=
EXTT5=
EXTT6=
EXTT7=
EXTT8=
EXTT9=
EXTT10=
EXTT11=
EXTT12=
EXTT13=
EXTT14=
EXTT15=
EXTT16=
EXTT17=
EXTT18=
EXTT19=
PLAYORDER=
